<svg xmlns="http://www.w3.org/2000/svg" version="1.1" xmlns:xlink="http://www.w3.org/1999/xlink" xmlns:svgjs="http://svgjs.com/svgjs" width="512px" height="512px"><svg xmlns="http://www.w3.org/2000/svg" version="1.1" width="512px" height="512px" style="shape-rendering:geometricPrecision; text-rendering:geometricPrecision; image-rendering:optimizeQuality; fill-rule:evenodd; clip-rule:evenodd" xmlns:xlink="http://www.w3.org/1999/xlink">
<g><path style="opacity:0.928" fill="#000000" d="M 511.5,119.5 C 511.5,126.167 511.5,132.833 511.5,139.5C 510.314,142.34 508.314,144.506 505.5,146C 499.683,148.398 493.683,150.231 487.5,151.5C 485.787,156.142 483.787,160.642 481.5,165C 496.193,180.509 494.193,193.509 475.5,204C 471.833,204.667 468.167,204.667 464.5,204C 459.702,201.365 455.035,198.532 450.5,195.5C 446.278,197.778 441.944,199.778 437.5,201.5C 435.659,224.427 423.992,231.594 402.5,223C 399.894,221.062 398.061,218.562 397,215.5C 396,210.833 395,206.167 394,201.5C 389.338,199.92 384.838,197.92 380.5,195.5C 364.806,209.245 351.64,207.245 341,189.5C 340.333,185.833 340.333,182.167 341,178.5C 343.635,173.702 346.468,169.035 349.5,164.5C 347.374,160.289 345.541,155.956 344,151.5C 321.227,149.629 313.893,137.962 322,116.5C 323.5,115 325,113.5 326.5,112C 332.134,110.342 337.801,108.842 343.5,107.5C 345.222,103.056 347.222,98.7223 349.5,94.5C 346.146,89.7926 343.313,84.7926 341,79.5C 339.713,73.9816 340.713,68.9816 344,64.5C 348.113,58.3799 353.779,54.7132 361,53.5C 368.158,55.2459 374.491,58.5793 380,63.5C 384.426,61.3712 388.926,59.3712 393.5,57.5C 395.021,51.3841 396.855,45.3841 399,39.5C 400.555,36.9453 402.722,35.1119 405.5,34C 425.604,28.446 436.104,35.946 437,56.5C 441.544,59.0186 446.211,61.352 451,63.5C 456.124,59.6878 461.624,56.5211 467.5,54C 471.894,53.4319 475.894,54.4319 479.5,57C 483.369,60.5338 486.869,64.3672 490,68.5C 492.466,75.0374 491.466,81.0374 487,86.5C 485.167,89 483.333,91.5 481.5,94C 484.012,97.858 485.845,102.025 487,106.5C 493.467,108.536 499.967,110.703 506.5,113C 508.55,114.965 510.217,117.132 511.5,119.5 Z M 412.5,49.5 C 414.833,49.5 417.167,49.5 419.5,49.5C 420.344,55.5513 421.51,61.5513 423,67.5C 423.465,68.9308 424.299,70.0975 425.5,71C 434.313,73.9132 442.98,77.0798 451.5,80.5C 457.675,78.4083 463.342,75.2417 468.5,71C 471.101,71.4007 473.101,72.9007 474.5,75.5C 470.091,80.9925 466.757,86.9925 464.5,93.5C 467.92,102.02 471.087,110.687 474,119.5C 474.903,120.701 476.069,121.535 477.5,122C 483.449,123.49 489.449,124.656 495.5,125.5C 495.5,128.167 495.5,130.833 495.5,133.5C 490.147,134.137 484.814,134.97 479.5,136C 477.152,136.346 475.319,137.513 474,139.5C 471.087,148.313 467.92,156.98 464.5,165.5C 466.192,171.055 469.025,176.055 473,180.5C 473.982,181.759 474.315,183.092 474,184.5C 472.667,185.833 471.333,187.167 470,188.5C 464.205,184.204 458.038,180.537 451.5,177.5C 443.827,181.504 435.827,184.67 427.5,187C 425.333,187.833 423.833,189.333 423,191.5C 421.51,197.441 420.343,203.441 419.5,209.5C 416.881,209.768 414.381,209.435 412,208.5C 410.893,203.523 409.893,198.523 409,193.5C 408.654,191.152 407.487,189.319 405.5,188C 398.138,185.771 391.138,182.771 384.5,179C 381.5,177 378.5,177 375.5,179C 370.812,182.831 365.812,185.831 360.5,188C 359.167,186.667 357.833,185.333 356.5,184C 360.692,177.946 364.359,171.612 367.5,165C 367,163.5 366.5,162 366,160.5C 362.229,153.862 359.229,146.862 357,139.5C 355.681,137.513 353.848,136.346 351.5,136C 346.448,135.256 341.448,134.256 336.5,133C 335.565,130.619 335.232,128.119 335.5,125.5C 341.864,124.55 348.197,123.384 354.5,122C 356.049,120.786 357.215,119.286 358,117.5C 360.357,109.128 363.524,101.128 367.5,93.5C 364.468,86.9651 360.801,80.7985 356.5,75C 357.833,73.6667 359.167,72.3333 360.5,71C 365.908,73.023 370.908,76.023 375.5,80C 376.833,80.1667 378.167,80.3333 379.5,80.5C 388.02,77.0798 396.687,73.9132 405.5,71C 407.487,69.6811 408.654,67.8477 409,65.5C 409.727,60.0302 410.893,54.6969 412.5,49.5 Z"></path></g>
<g><path style="opacity:0.922" fill="#000000" d="M 413.5,86.5 C 420.776,86.7531 427.776,88.2531 434.5,91C 438.249,94.2365 439.082,98.0698 437,102.5C 435.164,104.708 432.831,106.042 430,106.5C 414.202,99.4636 401.535,103.13 392,117.5C 386.111,135.552 391.944,148.052 409.5,155C 423.588,157.373 433.755,152.206 440,139.5C 442.537,132.665 443.204,125.665 442,118.5C 445.265,113.179 449.598,112.179 455,115.5C 461.327,135.522 456.16,152.022 439.5,165C 417.113,176.633 397.613,173.133 381,154.5C 370.187,135.805 371.187,117.805 384,100.5C 392.322,92.4202 402.155,87.7535 413.5,86.5 Z"></path></g>
<g><path style="opacity:0.928" fill="#000000" d="M -0.5,310.5 C -0.5,299.833 -0.5,289.167 -0.5,278.5C 1.92064,272.911 5.92064,268.744 11.5,266C 22.9697,262.54 34.6364,260.04 46.5,258.5C 49.591,246.232 54.2577,234.565 60.5,223.5C 53.0115,213.833 46.5115,203.5 41,192.5C 39.6694,185.751 40.6694,179.418 44,173.5C 49.8333,167.667 55.6667,161.833 61.5,156C 69.4307,151.19 77.4307,150.857 85.5,155C 94.4191,160.709 103.252,166.542 112,172.5C 122.838,166.166 134.338,161.499 146.5,158.5C 148.208,145.125 151.374,132.125 156,119.5C 163.194,112.079 172.027,109.079 182.5,110.5C 202.675,108.834 213.508,118.168 215,138.5C 216.234,145.167 217.4,151.834 218.5,158.5C 230.811,161.105 242.311,165.772 253,172.5C 262.99,165.176 273.49,158.676 284.5,153C 291.133,151.378 297.467,152.378 303.5,156C 309.333,161.833 315.167,167.667 321,173.5C 324.819,180.473 325.486,187.807 323,195.5C 317.082,205.005 310.915,214.338 304.5,223.5C 310.742,234.565 315.409,246.232 318.5,258.5C 331.932,259.952 344.932,263.119 357.5,268C 364.861,275.242 367.861,284.076 366.5,294.5C 367.861,304.924 364.861,313.758 357.5,321C 344.862,325.576 331.862,328.743 318.5,330.5C 315.501,342.662 310.834,354.162 304.5,365C 310.791,374.415 316.958,383.915 323,393.5C 325.488,401.157 324.822,408.49 321,415.5C 315.167,421.333 309.333,427.167 303.5,433C 297.582,436.331 291.249,437.331 284.5,436C 273.5,430.489 263.167,423.989 253.5,416.5C 242.613,422.278 231.28,426.944 219.5,430.5C 216.733,442.165 213.9,453.832 211,465.5C 208.438,471.061 204.272,474.894 198.5,477C 187.833,477.667 177.167,477.667 166.5,477C 160.728,474.894 156.562,471.061 154,465.5C 151.029,454.977 148.695,444.311 147,433.5C 146.682,431.939 145.849,430.772 144.5,430C 133.055,426.612 122.055,422.112 111.5,416.5C 101.833,423.989 91.4997,430.489 80.5,436C 73.7511,437.331 67.4178,436.331 61.5,433C 55.6667,427.167 49.8333,421.333 44,415.5C 40.1783,408.49 39.5116,401.157 42,393.5C 47.9183,383.995 54.0849,374.662 60.5,365.5C 54.7223,354.613 50.0557,343.28 46.5,331.5C 34.858,328.737 23.1913,325.903 11.5,323C 5.92064,320.256 1.92064,316.089 -0.5,310.5 Z M 173.5,126.5 C 179.842,126.334 186.175,126.5 192.5,127C 193.931,127.465 195.097,128.299 196,129.5C 199.31,142.024 201.977,154.691 204,167.5C 204.785,169.286 205.951,170.786 207.5,172C 223.144,175.658 237.81,181.658 251.5,190C 253.913,190.484 256.246,190.15 258.5,189C 267.956,181.549 277.956,174.882 288.5,169C 290.167,168.333 291.833,168.333 293.5,169C 299.294,174.117 304.294,179.784 308.5,186C 302.566,197.361 295.732,208.194 288,218.5C 287.125,219.873 286.625,221.373 286.5,223C 290.78,231.73 294.947,240.563 299,249.5C 301.31,256.075 303.31,262.742 305,269.5C 306.214,271.049 307.714,272.215 309.5,273C 322.309,275.023 334.976,277.69 347.5,281C 348.893,282.171 349.727,283.671 350,285.5C 350.667,291.5 350.667,297.5 350,303.5C 349.727,305.329 348.893,306.829 347.5,308C 334.612,311.204 321.612,313.87 308.5,316C 307.333,317.167 306.167,318.333 305,319.5C 300.743,335.669 294.576,351.003 286.5,365.5C 286.899,367.197 287.399,368.863 288,370.5C 295.451,379.956 302.118,389.956 308,400.5C 308.667,402.167 308.667,403.833 308,405.5C 302.883,411.294 297.216,416.294 291,420.5C 279.639,414.566 268.806,407.732 258.5,400C 257.127,399.125 255.627,398.625 254,398.5C 245.665,401.917 237.498,405.75 229.5,410C 222.272,412.641 214.939,414.974 207.5,417C 205.951,418.214 204.785,419.714 204,421.5C 201.989,433.231 199.656,444.898 197,456.5C 196.727,458.329 195.893,459.829 194.5,461C 186.5,461.667 178.5,461.667 170.5,461C 170,460.5 169.5,460 169,459.5C 165.868,446.169 162.868,432.836 160,419.5C 159.167,418.667 158.333,417.833 157.5,417C 142.092,413.46 127.759,407.46 114.5,399C 112.5,398.333 110.5,398.333 108.5,399C 98.5,405.667 88.5,412.333 78.5,419C 76.3046,420.373 73.9712,420.706 71.5,420C 65.7059,414.883 60.7059,409.216 56.5,403C 62.4342,391.639 69.2675,380.806 77,370.5C 77.8749,369.127 78.3749,367.627 78.5,366C 75.0831,357.665 71.2498,349.498 67,341.5C 64.0652,334.362 61.7318,327.029 60,319.5C 58.8333,318.333 57.6667,317.167 56.5,316C 46.1399,314.128 35.8066,312.128 25.5,310C 22.0967,309.422 18.9301,308.255 16,306.5C 15.3333,298.5 15.3333,290.5 16,282.5C 17.1711,281.107 18.6711,280.273 20.5,280C 32.8789,277.438 45.2122,274.771 57.5,272C 58.3333,271.167 59.1667,270.333 60,269.5C 63.3355,254.817 69.0021,241.15 77,228.5C 78.2504,225.923 78.5837,223.257 78,220.5C 71.3333,210.5 64.6667,200.5 58,190.5C 56.627,188.305 56.2937,185.971 57,183.5C 62.1174,177.706 67.7841,172.706 74,168.5C 85.6985,173.934 96.5318,180.768 106.5,189C 108.137,189.601 109.803,190.101 111.5,190.5C 125.898,182.088 141.231,175.921 157.5,172C 159.049,170.786 160.215,169.286 161,167.5C 163.156,154.722 165.822,142.056 169,129.5C 170.409,128.219 171.909,127.219 173.5,126.5 Z"></path></g>
<g><path style="opacity:0.924" fill="#000000" d="M 176.5,200.5 C 223.554,200.753 255.387,222.753 272,266.5C 280.825,297.365 275.658,325.532 256.5,351C 247.365,353.537 243.532,350.037 245,340.5C 266.128,307.808 265.128,275.808 242,244.5C 218.696,219.298 190.53,211.465 157.5,221C 148.754,224.79 140.254,228.957 132,233.5C 125.575,231.992 123.242,227.992 125,221.5C 133.358,213.566 143.191,208.066 154.5,205C 161.882,203.024 169.216,201.524 176.5,200.5 Z"></path></g>
<g><path style="opacity:0.923" fill="#000000" d="M 109.5,238.5 C 115.125,238.624 118.459,241.458 119.5,247C 117.671,252.491 115.171,257.657 112,262.5C 98.6867,296.933 105.187,327.1 131.5,353C 154.884,371.809 180.884,376.476 209.5,367C 216.668,363.662 223.835,360.496 231,357.5C 237.354,358.533 239.688,362.2 238,368.5C 237.535,369.931 236.701,371.097 235.5,372C 202.371,392.234 168.705,393.234 134.5,375C 100.402,352.297 85.5689,320.464 90,279.5C 91.9693,266.922 96.3026,255.256 103,244.5C 104.436,241.558 106.603,239.558 109.5,238.5 Z"></path></g>
</svg><style>@media (prefers-color-scheme: light) { :root { filter: none; } }
@media (prefers-color-scheme: dark) { :root { filter: none; } }
</style></svg>